<?xml version="1.0" encoding="utf-8"?>
<!-- Generator: Adobe Illustrator 26.5.0, SVG Export Plug-In . SVG Version: 6.00 Build 0)  -->
<svg width="189" height="40" viewBox="0 0 189 40" fill="none" version="1.1" id="Camada_1" xmlns="http://www.w3.org/2000/svg" xmlns:xlink="http://www.w3.org/1999/xlink" x="0px" y="0px"
	 viewBox="0 0 178.5 40" style="enable-background:new 0 0 178.5 40;" xml:space="preserve">
<style type="text/css">
	.st0{fill-rule:evenodd;clip-rule:evenodd;fill:#00B37E;}
	.st1{fill:#FFFFFF;}
	.st2{font-family:'Roboto-Black';}
	.st3{font-size:27.754px;}
</style>
<path class="st0" d="M7.5,10c0-1.4,1.1-2.5,2.5-2.5h3.8c1.4,0,2.5,1.1,2.5,2.5v20c0,1.4-1.1,2.5-2.5,2.5H10c-1.4,0-2.5-1.1-2.5-2.5
	V10z M13.8,10H10v20h3.8V10z"/>
<path class="st0" d="M23.8,10c0-1.4,1.1-2.5,2.5-2.5H30c1.4,0,2.5,1.1,2.5,2.5v20c0,1.4-1.1,2.5-2.5,2.5h-3.8
	c-1.4,0-2.5-1.1-2.5-2.5V10z M30,10h-3.8v20H30V10z"/>
<path class="st0" d="M30,12.5c0-0.7,0.6-1.2,1.2-1.2H35c0.7,0,1.3,0.3,1.8,0.7c0.5,0.5,0.7,1.1,0.7,1.8v12.5c0,0.7-0.3,1.3-0.7,1.8
	c-0.5,0.5-1.1,0.7-1.8,0.7h-3.8c-0.7,0-1.2-0.6-1.2-1.2s0.6-1.2,1.2-1.2H35V13.7h-3.8C30.6,13.7,30,13.2,30,12.5z"/>
<path class="st0" d="M3.2,12c0.5-0.5,1.1-0.7,1.8-0.7h3.8c0.7,0,1.2,0.6,1.2,1.2s-0.6,1.2-1.2,1.2H5v12.5h3.8c0.7,0,1.2,0.6,1.2,1.2
	s-0.6,1.2-1.2,1.2H5c-0.7,0-1.3-0.3-1.8-0.7c-0.5-0.5-0.7-1.1-0.7-1.8V13.7C2.5,13.1,2.8,12.5,3.2,12z"/>
<path class="st0" d="M13.8,20c0-0.7,0.6-1.2,1.2-1.2h10c0.7,0,1.2,0.6,1.2,1.2s-0.6,1.2-1.2,1.2H15C14.3,21.2,13.8,20.7,13.8,20z"/>
<path class="st0" d="M35,20c0-0.7,0.6-1.2,1.2-1.2h2.5c0.7,0,1.2,0.6,1.2,1.2s-0.6,1.2-1.2,1.2h-2.5C35.6,21.2,35,20.7,35,20z"/>
<path class="st0" d="M0,20c0-0.7,0.6-1.2,1.2-1.2h2.5C4.4,18.7,5,19.3,5,20s-0.6,1.2-1.2,1.2H1.2C0.6,21.2,0,20.7,0,20z"/>
<text transform="matrix(1 0 0 1 54.4401 30)" class="st1 st2 st3">Gym Flow</text>
</svg>
